<svg xmlns="http://www.w3.org/2000/svg" viewBox="0 0 240 240" role="img" aria-labelledby="title desc">
  <title id="title">WGS – Wählergruppe Sprötze</title>
  <desc id="desc">Vektorisiertes WGS-Logo für die Website Sprötze aktuell.</desc>
  <defs>
    <linearGradient id="bg" x1="24" x2="216" y1="24" y2="216" gradientUnits="userSpaceOnUse">
      <stop offset="0" stop-color="#2563eb" />
      <stop offset="1" stop-color="#0f3d99" />
    </linearGradient>
    <linearGradient id="hill" x1="52" x2="190" y1="146" y2="208" gradientUnits="userSpaceOnUse">
      <stop offset="0" stop-color="#34d399" />
      <stop offset="1" stop-color="#15803d" />
    </linearGradient>
    <filter id="shadow" x="-20%" y="-20%" width="140%" height="140%">
      <feDropShadow dx="0" dy="8" stdDeviation="8" flood-color="#0f172a" flood-opacity="0.16" />
    </filter>
  </defs>
  <circle cx="120" cy="120" r="108" fill="url(#bg)" />
  <circle cx="120" cy="120" r="104" fill="none" stroke="rgba(255,255,255,0.24)" stroke-width="2" />
  <g filter="url(#shadow)">
    <path d="M44 164c18-28 47-42 76-42 33 0 57 13 82 42v28H44z" fill="url(#hill)" />
    <path d="M74 146l46-41 46 41-10 11-36-31-36 31z" fill="#f8fafc" />
    <rect x="96" y="140" width="48" height="32" rx="8" fill="#f8fafc" />
    <rect x="114" y="148" width="12" height="24" rx="4" fill="#0f3d99" opacity="0.82" />
  </g>
  <g fill="#ffffff">
    <path d="M43.5 92.3 53.3 60h10.3l7 23.5L77.6 60h10.2l9.8 32.3h-8.4l-6-21.3-6.5 21.3H67L60.5 71l-6.1 21.3z" />
    <path d="M118.3 92.9c-4.4 0-8.4-.9-12-2.8-3.5-1.9-6.3-4.5-8.2-7.8-1.9-3.4-2.9-7.2-2.9-11.5 0-4.3 1-8.1 3.1-11.5 2.1-3.4 4.9-6 8.5-7.9 3.6-1.9 7.6-2.8 12.1-2.8 5.1 0 9.5 1.1 13.2 3.3 3.7 2.2 6.3 5.2 7.8 9l-8.1 2.8c-1.1-2.2-2.8-4-5-5.2-2.2-1.2-4.8-1.8-7.8-1.8-2.9 0-5.4.6-7.7 1.8-2.2 1.2-4 2.9-5.2 5.1-1.2 2.2-1.9 4.7-1.9 7.4 0 2.8.6 5.3 1.8 7.4 1.2 2.2 2.9 3.9 5.1 5.1 2.2 1.2 4.8 1.8 7.7 1.8 2.4 0 4.6-.4 6.6-1.1 2-.8 3.7-1.9 5-3.3v-4.6h-12.5v-7h20.4v14.8c-2.2 2.8-5.1 5.1-8.8 6.8-3.6 1.7-7.7 2.6-12.1 2.6z" />
    <path d="M161.8 92.9c-4.2 0-8.1-.7-11.5-2.2-3.4-1.5-6.3-3.6-8.5-6.2l5.4-5.6c2.2 2.2 4.6 3.9 7.1 4.9 2.5 1.1 5.1 1.6 7.8 1.6 2.6 0 4.6-.4 6-1.2 1.4-.8 2.1-1.9 2.1-3.4 0-1.3-.4-2.3-1.2-3.1-.8-.8-1.9-1.4-3.3-1.9-1.4-.5-2.9-.9-4.6-1.2-1.7-.3-3.4-.7-5.1-1.1-1.7-.4-3.4-1-5-1.8-1.6-.7-3.1-1.7-4.4-2.9-1.3-1.2-2.3-2.6-3.1-4.3-.8-1.7-1.1-3.8-1.1-6.2 0-2.7.7-5.1 2.2-7.2 1.4-2.1 3.5-3.8 6.2-4.9 2.7-1.2 5.9-1.8 9.6-1.8 3.7 0 7.2.7 10.4 2 3.2 1.3 5.8 3.1 7.9 5.4l-5.4 5.6c-1.8-1.8-3.7-3.1-5.8-4-2.1-.9-4.3-1.3-6.7-1.3-2.2 0-4 .4-5.2 1.1-1.2.7-1.9 1.8-1.9 3.1 0 1.2.4 2.2 1.2 2.8.8.7 1.9 1.2 3.2 1.6 1.3.4 2.9.8 4.6 1.1 1.7.3 3.4.7 5.1 1.1 1.7.4 3.4 1 5.1 1.8 1.7.8 3.2 1.8 4.5 3.1 1.3 1.3 2.4 2.8 3.2 4.7.8 1.8 1.2 4 1.2 6.5 0 4.2-1.6 7.5-4.7 9.9-3.1 2.4-7.5 3.6-13.2 3.6z" />
    <text x="120" y="203" text-anchor="middle" font-family="Inter, Arial, sans-serif" font-size="20" font-weight="700" letter-spacing="2.8">SPRÖTZE</text>
  </g>
</svg>
